<?xml version="1.0" encoding="utf-8"?>
<!-- Generator: Adobe Illustrator 26.0.2, SVG Export Plug-In . SVG Version: 6.00 Build 0)  -->
<svg version="1.1" id="Layer_1" xmlns="http://www.w3.org/2000/svg" xmlns:xlink="http://www.w3.org/1999/xlink" x="0px" y="0px"
	 viewBox="0 0 788 486" style="enable-background:new 0 0 788 486;" xml:space="preserve">
<style type="text/css">
	.st0{fill:#FFFFFF;}
</style>
<path class="st0" d="M132.7,147h-32.4V10.4h-8.9V2.2h30.9v136.4h10.4V147z M284.2,147h-32.4v-26.4c-20.6-22.1-45.7-48.9-75.2-80.4
	v98.4h10.4v8.4h-32.4V10.8h-8.9V2.2h30.9v22.5l75.2,80V10.8h-8.9V2.2h30.9v136.4h10.4V147z M439.7,36.7l-25.5-0.2
	c-4.6-10.7-9.9-17.9-15.8-21.8c-5.9-4-14.6-6.1-26.2-6.1c-14.6,0-26.9,7.1-37,21.2c-9.1,12.7-13.6,26.4-13.6,41.3
	c0,19.5,6.4,35.5,19.2,48c12.8,12.5,29.3,18.8,49.5,18.8c8.5,0,17.5-1.9,27-5.8V71.3h-15.1v-6.5h36.8v68.3h-9.3
	c-15.6,10.5-32.4,15.8-50.4,15.8c-23.2,0-42.4-6.8-57.5-20.5c-15.7-14.1-23.6-32.6-23.6-55.6c0-20.6,8-38,24-52.1
	c15.4-13.7,33.6-20.5,54.5-20.5c4.5,0,10.9,1.2,19.2,3.5c8.4,2.3,14.7,3.5,19,3.5c0.6,0,1.3-0.4,2.2-1.1c0.9-0.7,1.4-1.1,1.7-1.1
	s0.5,0.1,0.6,0.4c2.5,3,7.2,11.9,14.3,26.6l4.3-0.2L439.7,36.7z M566.7,147h-112v-8.6h12.3V10.6H455V2.2h107.9v33.9l-24-25.5h-49.5
	v53.2h42.4l17.9-13.4v35L532.4,72h-43v66.4h50.8l26.6-25.5V147z M696.7,139l-0.2,8h-30.1c-6.5-9.8-12.7-19-18.6-27.5
	c-14.3-20.3-25.7-35.5-34.2-45.4l0.4,64.9h8.4v8h-30.9V10.1h-11.9v-8h58.8c31.3,0,46.9,11.2,46.9,33.7c0,11.7-4.5,21.3-13.4,28.8
	C664,71.5,654.9,75,644.8,75c-1.7,0-3.5-0.1-5.2-0.4c9.9,13.4,26.2,35,48.6,64.9L696.7,139z M660.4,37.6c0-18.3-10.1-27.5-30.3-27.5
	h-15.3v54c2,0.9,4,1.8,6.1,2.8c0.4,0,3.6,0,9.5,0c8.8,0,16-2.6,21.6-7.8C657.6,54,660.4,46.8,660.4,37.6z M162.7,312h-31.1V201.1
	l-50.8,68.5l-47.6-54.5v88.2h9.1v8.6H10.7V175.6l-10.2,0.2v-8.6l32.4-0.2v17.9l53.2,61.4l45.4-60.5v-10.2h-8.9v-8.4h30.9l0.2,136.2
	h8.9V312z M328.4,312c-5.2-0.1-16.1-0.2-32.9-0.2l-0.2-17.5c-15.6,12.7-32.4,19.3-50.4,19.9c-13.5,0.4-26.3-4.3-38.3-14.1
	c-13.1-10.7-19.7-24.1-19.9-40.2c0,2.7,0-25.5,0-84.7h-11.2v-8h33.3l-0.2,88.2c-0.4,31.6,12.6,47.6,39.1,48
	c15.3,0.3,30.9-7.9,46.9-24.4c-0.1,0.1-0.2-34.2-0.2-102.9h-11.2v-8.9h33.7v136.2h11.2L328.4,312z M479.8,312h-32.4v-26.4
	c-20.6-22.1-45.7-48.9-75.2-80.4v98.4h10.4v8.4h-32.4V175.8h-8.9v-8.6h30.9v22.5l75.2,80v-93.8h-8.9v-8.6h30.9v136.4h10.4V312z
	 M637.9,201.7l-27-0.2c-4.8-10.7-10-18-15.8-22.1c-6.2-4.3-15.1-6.5-26.6-6.5c-14.6,0-26.5,6.8-35.9,20.3
	c-8.4,12-12.5,25.4-12.5,40.4c0,19.7,6.1,36.1,18.4,49.1c12.5,13.4,28.8,20.1,48.6,20.1c7.5,0,15.6-1.6,24.2-4.8
	c9.4-3.5,16.4-7.8,21-13l4.3,4.3c-2,2.5-5.2,5.8-9.5,10.2c-13.7,9.5-30.7,14.3-51,14.3c-7.5,0-14.6-0.6-21.4-1.9
	c-17.4-3.3-31.8-12-43-25.9c-11.1-14.1-16.6-30.2-16.6-48.2c0-20.6,8-38.1,24-52.3c15.4-13.5,33.6-20.3,54.5-20.3
	c4.5,0,10.9,1.2,19.2,3.5c8.4,2.3,14.7,3.5,19,3.5c0.7,0,1.7-0.3,2.8-0.9c1.3-0.7,2.3-1.1,3-1.1c1.6,0,6.6,8.9,15.1,26.8l4.3-0.2
	L637.9,201.7z M787.4,312H755v-73.5h-73.1v64.6h10.4v8.9h-32.4V175.8H651v-8.6h30.9v62.7H755v-54h-8.9v-8.6H777v136h10.4V312z
	 M72.2,425c0-19.2-12.3-36.4-32.9-36.4S6.4,405.8,6.4,425s12.3,36.4,32.9,36.4S72.2,444.2,72.2,425z M15,425
	c0-17.2,9.4-29.8,24.4-29.8s24.4,12.6,24.4,29.8s-9.4,29.8-24.4,29.8S15,442.2,15,425z M151,458.9V390h-7.8v16.9H143
	c-4.1-10.9-13.3-18.3-25.8-18.3c-19.9,0-31.1,15.4-31.1,35s11.2,35,31.1,35c12.5,0,21.7-7.4,25.8-18.3h0.1v18.6
	c0,13.4-9.8,19.7-22.4,19.7c-11.2,0-21.3-5.2-22.3-16.7h-7.8c1.3,14.6,12.3,23.2,30.1,23.2C139.5,485.2,151,475,151,458.9z
	 M94.7,423.6c0-17.2,9.4-28.4,24.4-28.4s24.4,11.2,24.4,28.4S134,452,119,452S94.7,440.8,94.7,423.6z M195.9,460h8.7l11.3-30.7h48.7
	L276,460h8.7l-36-96.6h-16.8L195.9,460z M240.3,363.8l21.7,58.4h-43.4L240.3,363.8z M343.2,460h10.5l-38.2-39.1l37-30.9h-10.6
	l-36.5,30.5v-57.1h-7.8V460h7.8v-38.8L343.2,460z M419.4,437.9h-7.8c-1.5,7.7-6.9,16.9-20.6,16.9c-15.4,0-24.2-12-24.6-27.6h54.2
	c1.4-21.4-11.1-38.6-30.9-38.6c-19.6,0-31.2,17.1-31.2,36.4s11.6,36.4,31.6,36.4C408.3,461.4,417.1,450.6,419.4,437.9z M389.6,395.2
	c13.7,0,22.4,10.8,23.1,25.5h-46.3C367.4,405.7,376.3,395.2,389.6,395.2z M446.4,460v-41.7c0-14.6,8.3-21.3,21.4-21.3h2v-8.4
	c-11.6,0-19.2,5-23.4,15.5h-0.3V390h-7.6v70H446.4z M533.7,441.1c0-11.8-6.7-16.8-21.8-20.4l-8-1.8c-10.1-2.4-16.7-4.6-16.7-11.5
	c0-7.8,7.6-12.2,16.9-12.2c11.8,0,18.6,7,19.6,15.5h8c-1-12.9-12.6-22.1-27.6-22.1c-14.6,0-24.8,8.5-24.8,19.3
	c0,10.5,8.4,15.5,21.3,18.5l7.8,1.8c12,2.8,17.4,5.7,17.4,13.2c0,8.1-7.6,13.4-18.9,13.4c-14,0-20.9-9.4-21.6-19.3h-8
	c0.7,13.7,11.2,25.9,29.4,25.9C523.6,461.4,533.7,453.7,533.7,441.1z M607.9,437.9h-7.8c-1.5,7.7-6.9,16.9-20.6,16.9
	c-15.4,0-24.2-12-24.6-27.6H609c1.4-21.4-11.1-38.6-30.9-38.6c-19.6,0-31.2,17.1-31.2,36.4s11.6,36.4,31.6,36.4
	C596.9,461.4,605.7,450.6,607.9,437.9z M578.1,395.2c13.7,0,22.4,10.8,23.1,25.5h-46.3C556,405.7,564.8,395.2,578.1,395.2z
	 M627.1,460h7.8v-96.6h-7.8V460z M649.6,390l23.8,70h16l23.8-70h-8.3l-23.5,69.6L657.9,390H649.6z M770.2,444.5h0.1V460h7.6v-44
	c0-19.5-12.3-27.4-27.3-27.4c-16.9,0-26.5,10.2-27.2,23.5h8c0.4-9,6.2-16.9,19.2-16.9c13.7,0,19.5,9,19.5,19.9v2.7l-19.6,2.1
	c-16.2,1.8-29.7,5.9-29.7,20.3c0,14.1,11.2,21.3,24.4,21.3C757.9,461.4,766.5,454.5,770.2,444.5z M729.2,440.8
	c0-10.5,9.8-13.4,23.9-15l16.9-2v4.5c0,16.1-7.7,26.5-23.8,26.5C738,454.8,729.2,450.1,729.2,440.8z"/>
</svg>
