<?xml version="1.0" standalone="no"?>
<!DOCTYPE svg PUBLIC "-//W3C//DTD SVG 20010904//EN"
 "http://www.w3.org/TR/2001/REC-SVG-20010904/DTD/svg10.dtd">
<svg version="1.0" xmlns="http://www.w3.org/2000/svg"
 width="260.000000pt" height="260.000000pt" viewBox="0 0 260.000000 260.000000"
 preserveAspectRatio="xMidYMid meet">
<metadata>
Created by potrace 1.14, written by Peter Selinger 2001-2017
</metadata>
<g transform="translate(0.000000,260.000000) scale(0.100000,-0.100000)"
fill="#000000" stroke="none">
<path d="M452 2580 c-109 -29 -187 -74 -272 -160 -87 -86 -131 -163 -160 -276
-19 -74 -20 -113 -20 -844 0 -731 1 -770 20 -844 28 -112 73 -190 160 -277 85
-87 160 -130 278 -160 71 -18 117 -19 842 -19 731 0 770 1 844 20 112 28 190
73 277 160 87 85 130 160 160 278 18 71 19 117 19 842 0 731 -1 770 -20 844
-29 113 -73 190 -160 276 -86 87 -163 131 -276 160 -74 19 -112 20 -848 19
-726 0 -775 -1 -844 -19z m1070 -547 c14 -43 130 -385 256 -761 l231 -683
-101 3 -101 3 -76 225 -76 225 -355 0 -354 0 -77 -225 -77 -225 -100 -3 -101
-3 60 178 c34 98 148 436 254 750 107 315 196 577 200 583 4 6 78 10 198 10
l193 0 26 -77z"/>
<path d="M1147 1645 l-146 -435 299 0 299 0 -146 435 c-80 239 -149 435 -153
435 -4 0 -72 -196 -153 -435z"/>
</g>
</svg>
