<svg width="98" height="36" viewBox="0 0 98 36" fill="none" xmlns="http://www.w3.org/2000/svg">
<path fill-rule="evenodd" clip-rule="evenodd" d="M8.55182 0.255157C4.36049 4.53219 1.10915 12.743 0.270233 21.1692C0.0591736 23.289 -0.0886409 28.7245 0.0606877 28.8737C0.0718794 28.8849 1.03004 29.1563 2.18993 29.4769C5.56589 30.4101 5.3473 30.1681 5.67196 33.3314C5.78008 34.3849 5.87517 35.2667 5.88323 35.2909C5.89467 35.3252 6.22507 35.3349 7.37719 35.3349H8.85643V17.6674C8.85643 7.95035 8.84415 0 8.82915 0C8.81416 0 8.68936 0.114803 8.55182 0.255157ZM9.95621 19.4711L9.96504 35.3173L11.0984 35.3266L12.2317 35.3359L12.2509 35.221C12.2614 35.1578 12.4046 33.847 12.569 32.3082C13.0177 28.1082 12.9285 28.2731 15.1188 27.5948C15.6887 27.4183 16.1604 27.2683 16.1672 27.2616C16.2435 27.1853 16.5971 21.4244 16.673 19.0224C16.9217 11.1558 15.4078 7.09115 11.1925 4.30765C10.846 4.07882 10.0336 3.62499 9.9706 3.62499C9.95783 3.62499 9.95135 10.7557 9.95621 19.4711ZM72.3466 25.7842C69.1715 26.1811 67.2889 29.2841 68.3586 32.3573C69.8723 36.706 76.3817 36.5605 77.6436 32.1498C78.6562 28.6104 75.9315 25.3361 72.3466 25.7842ZM25.8788 25.9965C25.8209 26.0545 25.8526 35.2912 25.9109 35.3135C25.9931 35.3451 27.1677 35.3384 27.2186 35.3061C27.252 35.2849 27.2643 34.9118 27.2714 33.7141L27.2805 32.1498L29.1634 32.1322L31.0463 32.1146V31.4283V30.742L29.1634 30.7244L27.2805 30.7068V29.0703V27.4338L29.6737 27.4162L32.0669 27.3986V26.6947V25.9908L28.9847 25.9819C27.2895 25.9769 25.8918 25.9835 25.8788 25.9965ZM34.0976 26.0155C34.0136 26.0995 34.0391 35.2533 34.1235 35.2984C34.1626 35.3193 34.4407 35.3349 34.7769 35.3349C35.5927 35.3349 35.4984 35.549 35.4984 33.6971V32.1322H36.4239H37.3495L38.3441 33.713C38.8911 34.5824 39.3628 35.303 39.3923 35.3143C39.4784 35.3474 40.8606 35.3369 40.9145 35.3027C40.9983 35.2496 40.9532 35.1691 39.9148 33.5207C39.3591 32.6387 38.9102 31.913 38.9171 31.9081C38.9241 31.9032 39.0382 31.8447 39.1707 31.7782C41.8467 30.4336 41.0705 26.3713 38.0684 26.0092C37.6251 25.9557 34.1519 25.9612 34.0976 26.0155ZM43.2481 26.0155C43.1641 26.0995 43.1896 35.2533 43.2739 35.2984C43.313 35.3193 43.5912 35.3349 43.9273 35.3349C44.2635 35.3349 44.5417 35.3193 44.5808 35.2984C44.6651 35.2533 44.6906 26.0995 44.6066 26.0155C44.5769 25.9857 44.3759 25.9732 43.9273 25.9732C43.4788 25.9732 43.2778 25.9857 43.2481 26.0155ZM46.6629 26.0027C46.6286 26.0245 46.6204 26.1914 46.6277 26.7149L46.6373 27.3986L47.8779 27.4079L49.1185 27.4171V31.3543V35.2915L49.1977 35.3127C49.3151 35.3442 50.4311 35.3383 50.4821 35.3059C50.5166 35.284 50.5279 34.4401 50.5349 31.356L50.5438 27.4338L51.7738 27.4245C52.7041 27.4175 53.0106 27.4047 53.0315 27.3717C53.0786 27.2976 53.0663 26.0638 53.018 26.0155C52.9687 25.9662 46.7402 25.9537 46.6629 26.0027ZM54.4693 26.0411C54.4158 26.1411 54.4208 27.3198 54.475 27.374C54.5062 27.4052 54.8324 27.4162 55.7244 27.4162H56.9316V31.3202C56.9316 34.8224 56.9373 35.23 56.9869 35.2796C57.0439 35.3366 58.1058 35.3635 58.2953 35.3127L58.3745 35.2915V31.3543V27.4171L59.6151 27.4079L60.8557 27.3986V26.6947V25.9908L57.6808 25.9819C54.57 25.9731 54.5051 25.9743 54.4693 26.0411ZM80.2371 26.0155C80.1531 26.0995 80.1786 35.2533 80.2629 35.2984C80.302 35.3193 80.5802 35.3349 80.9163 35.3349C81.7321 35.3349 81.6378 35.549 81.6378 33.6971V32.1322H82.5623H83.4868L84.454 33.6712C85.6461 35.5682 85.3908 35.335 86.2746 35.3343C87.3061 35.3336 87.3331 35.5561 86.055 33.525C85.4986 32.6409 85.0492 31.9125 85.0563 31.9064C85.0634 31.9003 85.1769 31.8423 85.3085 31.7774C87.9859 30.4576 87.2061 26.3708 84.2079 26.0092C83.7646 25.9557 80.2914 25.9612 80.2371 26.0155ZM89.5653 25.9947C89.5304 26.0102 89.5213 26.973 89.5213 30.6381V35.262L89.5964 35.3022C89.7221 35.3695 93.5292 35.3248 93.947 35.2512C99.0434 34.3528 99.0503 27.0721 93.9557 26.0547C93.69 26.0016 89.6731 25.9468 89.5653 25.9947ZM73.9479 27.3099C75.5132 27.739 76.5015 29.146 76.4188 30.8273C76.2094 35.0826 69.995 35.2697 69.5241 31.0349C69.2455 28.5297 71.4934 26.637 73.9479 27.3099ZM38.2846 27.5094C39.4354 27.9444 39.7559 29.3601 38.8976 30.2167C38.4608 30.6525 38.3017 30.6873 36.7389 30.6884L35.4984 30.6892V29.0508V27.4122L36.7917 27.4231C38.0137 27.4334 38.0961 27.4382 38.2846 27.5094ZM84.2511 27.4682C85.5474 27.8059 85.962 29.3961 84.9831 30.2761C84.5634 30.6535 84.3907 30.6873 82.8784 30.6884L81.6378 30.6892V29.0527V27.4162H82.8446C83.7957 27.4162 84.0937 27.4272 84.2511 27.4682ZM93.9909 27.5291C97.1272 28.3777 97.1319 32.9372 93.9973 33.7774C93.6646 33.8665 93.6249 33.869 92.3104 33.8835L90.9642 33.8983V30.6543V27.4104L92.3104 27.4245C93.6236 27.4383 93.6648 27.4409 93.9909 27.5291Z" fill="white"/>
</svg>
