<svg width="176" height="20" viewBox="0 0 176 20" fill="none" xmlns="http://www.w3.org/2000/svg">
<path fill-rule="evenodd" clip-rule="evenodd" d="M54.2722 8.73563V17.4713H56.1909H58.1097L58.1137 16.8391C58.1177 16.2201 58.1205 16.2109 58.248 16.3978C59.8677 18.7706 62.787 18.0807 63.4638 15.1652C63.6672 14.289 63.6642 6.10444 63.4602 5.36398C62.8039 2.98192 59.8607 2.33885 58.4559 4.27065C58.3288 4.44536 58.199 4.59042 58.1673 4.59303C58.1356 4.59563 58.1097 3.56322 58.1097 2.29885V0H56.1909H54.2722V8.73563ZM76.2231 1.30268V2.60536H78.1419H80.0607V1.30268V0H78.1419H76.2231V1.30268ZM87.4252 2.31801L87.4216 4.63601L87.2141 4.36782C85.5992 2.28008 82.4921 3.01188 82.0583 5.58215C81.9057 6.4859 81.9898 14.866 82.1572 15.4406C82.9488 18.1584 85.8385 18.6661 87.3283 16.349C87.4033 16.2324 87.4206 16.3204 87.4243 16.8391L87.4288 17.4713H89.3476H91.2664V8.73563V0H89.3476H87.4288L87.4252 2.31801ZM171.241 2.1036V3.59425L170.762 3.61701L170.282 3.63985L170.261 5L170.24 6.36015H170.741H171.241V11.1355C171.241 17.7783 171.201 17.6962 174.484 17.7615L176 17.7916V16.3287V14.8659H175.659C175.051 14.8659 175.079 15.0809 175.079 10.4427V6.36015H175.539H176V4.98084V3.60153H175.539H175.079V2.10728V0.613027H173.16H171.241V2.1036ZM68.702 3.14966C66.8774 3.42935 65.7073 4.4128 65.2883 6.01877C65.1156 6.68092 65.1142 14.0798 65.2866 14.7409C65.7936 16.6841 67.3099 17.6582 69.8143 17.6497C72.9845 17.6388 74.4523 16.2195 74.4565 13.1609L74.4578 12.1839H72.5443H70.6308L70.6063 13.4168L70.5818 14.6497L70.3665 14.8344C70.2037 14.9741 70.0632 15.0185 69.7908 15.0167C69.0529 15.0117 69.0084 14.8815 69.0084 12.7254V10.9579H71.7331H74.4578L74.4565 8.7931C74.4537 4.19525 72.7542 2.52851 68.702 3.14966ZM3.8007 3.21625C1.806 3.43985 0.437755 4.53793 0.0934483 6.19149C-0.049156 6.87617 -0.0209114 14.3364 0.126375 14.901C1.17511 18.9208 8.32397 18.7795 9.18543 14.722C9.34592 13.966 9.34116 7.00797 9.1796 6.24651C8.71962 4.07839 6.62684 2.89939 3.8007 3.21625ZM16.8374 3.22659C16.032 3.36061 15.175 3.97693 14.7828 4.70421C14.5562 5.12421 14.5149 5.04874 14.5149 4.21456V3.44828H12.6729H10.8308V10.4598V17.4713H12.7496H14.6684V12.4571C14.6684 9.09149 14.6953 7.37203 14.7503 7.2272C15.0307 6.48828 15.8511 6.3905 16.238 7.04981C16.3917 7.3118 16.3958 7.43494 16.4171 12.3946L16.4389 17.4713H18.3551H20.2713L20.2717 12.5096C20.2722 6.63218 20.2728 6.62835 21.1539 6.62835C22.0313 6.62835 22.0365 6.66352 22.0365 12.5627V17.4713H23.958H25.8794L25.8563 11.4368C25.8354 5.98329 25.8205 5.36513 25.702 5.01602C24.9413 2.77716 21.8196 2.48398 20.4614 4.52368L20.0933 5.0764L19.8868 4.62192C19.5235 3.82307 18.9068 3.37571 17.9562 3.22169C17.4113 3.13341 17.3968 3.13349 16.8374 3.22659ZM38.8506 3.33264C36.8795 3.77839 35.9107 4.91563 35.8652 6.83686L35.8402 7.89272H37.6043H39.3684L39.3946 7.08965C39.45 5.38988 41.1477 5.23992 41.1477 6.93487C41.1477 7.96054 40.7036 8.40981 38.9864 9.12115C35.9941 10.3607 34.9975 12.2711 35.6896 15.4406C36.2095 17.8211 39.0276 18.6306 40.8753 16.93C41.2937 16.5451 41.3012 16.5471 41.3012 17.0498V17.4713H43.0664H44.8317V12.0757C44.8317 5.00927 44.7386 4.56199 43.0925 3.72981C42.1648 3.26077 40.0459 3.06238 38.8506 3.33264ZM52.065 3.3459C51.55 3.52797 51.0937 4.0492 50.6414 4.97203L50.2427 5.78544L50.2215 4.61686L50.2003 3.44828H48.3987H46.597V10.4598V17.4713H48.5158H50.4346V13.2681C50.4346 10.296 50.4605 8.98874 50.5231 8.80452C50.7747 8.06406 51.2031 7.82031 52.2574 7.81778L52.9674 7.81609V5.51724V3.21839L52.6796 3.22444C52.5213 3.22774 52.2448 3.28245 52.065 3.3459ZM96.1785 3.33793C94.6838 3.65962 93.5939 4.65816 93.2056 6.06169C93.0301 6.69632 92.9985 14.0643 93.1683 14.7845C93.6321 16.7523 95.1495 17.7384 97.7135 17.7384C100.894 17.7384 102.244 16.478 102.371 13.3908L102.418 12.2605H100.494H98.5713L98.5453 13.485C98.5111 15.0994 97.908 15.7076 97.1204 14.9218L96.9076 14.7094L96.8823 12.9113L96.8569 11.113L99.607 11.0929L102.357 11.0728V8.77395C102.357 6.16054 102.303 5.83854 101.719 4.9351C100.81 3.53157 98.4457 2.85004 96.1785 3.33793ZM109.568 3.32C108.87 3.58843 108.433 4.09034 107.969 5.15793C107.825 5.48667 107.687 5.7767 107.661 5.80245C107.636 5.8282 107.614 5.30904 107.614 4.64881V3.44828H105.811H104.007V10.4598V17.4713H105.926H107.845L107.845 13.3142C107.846 7.839 107.851 7.82207 109.668 7.81778L110.377 7.81609V5.51724V3.21839L110.09 3.22421C109.931 3.22743 109.697 3.2705 109.568 3.32ZM117.362 3.34207C116.702 3.58054 116.113 4.10261 115.707 4.80843C115.483 5.19824 115.443 5.1151 115.443 4.25287V3.44828H113.601H111.759V10.4598V17.4713H113.675H115.591L115.613 12.433C115.639 6.43525 115.66 6.33211 116.769 6.66398C117.374 6.84498 117.358 6.68897 117.36 12.433L117.362 17.4713H119.278H121.194L121.216 12.433C121.242 6.43372 121.272 6.28529 122.381 6.67617C122.99 6.89065 122.965 6.64536 122.965 12.3934V17.4713H124.884H126.802V11.5487C126.802 6.44674 126.786 5.56291 126.683 5.17011C126.051 2.74797 122.617 2.44207 121.326 4.69287C121.114 5.0623 121.038 5.05441 120.87 4.64529C120.393 3.48812 118.7 2.85893 117.362 3.34207ZM142.229 3.341C140.482 3.80659 139.514 4.98383 139.345 6.84874C139.177 8.69134 139.971 9.98398 142.383 11.7999C144.299 13.2415 144.769 14.0471 144.168 14.8555C143.564 15.6684 142.688 15.0307 142.628 13.7342L142.595 13.0239L140.896 13.0445L139.198 13.0651L139.22 13.9847C139.284 16.6249 140.367 17.6434 143.227 17.7532C146.288 17.8706 147.902 16.4639 147.908 13.6751C147.911 11.7382 147.295 10.9081 144.025 8.44736C142.849 7.56222 142.499 6.83801 142.917 6.15356C143.408 5.34843 144.273 5.85464 144.354 6.99487L144.401 7.66284H146.078H147.755V6.91264C147.755 4.12697 145.281 2.52774 142.229 3.341ZM152.322 3.3318C150.669 3.69502 149.672 4.60329 149.291 6.09165C149.091 6.87096 149.056 13.8218 149.248 14.7227C149.675 16.7374 151.153 17.7267 153.742 17.7326C157.002 17.7402 158.419 16.4025 158.423 13.3142L158.424 12.2605H156.505H154.586V13.4695C154.586 15.012 154.357 15.3576 153.502 15.102C153.006 14.9534 152.975 14.8206 152.975 12.8391V11.1111H155.699H158.424V8.89931C158.424 4.20291 156.47 2.42015 152.322 3.3318ZM163.111 3.33739C161.593 3.66621 160.584 4.57563 160.138 6.01862C159.899 6.79172 159.925 14.2914 160.169 15.0667C160.745 16.8957 162.158 17.7396 164.641 17.7373C167.811 17.7344 169.246 16.3874 169.246 13.4156V12.2605H167.365H165.485L165.483 13.2375C165.48 15.0112 164.863 15.7349 164.048 14.9218L163.835 14.7094L163.811 12.9103L163.786 11.1111H166.516H169.246L169.245 8.7931C169.243 4.15149 167.307 2.42904 163.111 3.33739ZM76.2231 10.4598V17.4713H78.1419H80.0607V10.4598V3.44828H78.1419H76.2231V10.4598ZM128.491 9.25793C128.491 15.3931 128.505 15.6693 128.848 16.3602C129.819 18.3156 132.648 18.252 133.96 16.2452C134.081 16.0605 134.086 16.0791 134.09 16.7625L134.094 17.4713H135.936H137.778V10.4598V3.44828H135.901H134.024L134.001 8.5249C133.975 14.5042 134.001 14.3295 133.118 14.3295C132.317 14.3295 132.329 14.4248 132.329 8.48659L132.328 3.44828H130.41H128.491V9.25793ZM70.3958 5.94467C70.5721 6.1318 70.5832 6.20008 70.6067 7.24736L70.6316 8.35249H69.82H69.0084V7.31418C69.0084 5.90015 69.0789 5.76467 69.8202 5.75318C70.1439 5.74812 70.2411 5.78046 70.3958 5.94467ZM5.20448 6.00866L5.41985 6.19356L5.4431 10.2807C5.46912 14.8399 5.46528 14.8834 5.02151 15.0685C4.65172 15.2228 4.20165 15.1428 4.00025 14.8872C3.81789 14.6558 3.75449 6.56889 3.93194 6.18C4.11047 5.78881 4.83485 5.69126 5.20448 6.00866ZM98.1742 5.93885C98.4764 6.09487 98.5569 6.42851 98.5573 7.52874L98.5578 8.42912H97.7135H96.8692L96.8697 7.52874C96.8704 5.98138 97.2829 5.47862 98.1742 5.93885ZM154.362 6.04774L154.586 6.27172V7.35042V8.42912H153.78H152.975L152.976 7.41379C152.976 6.75356 153.01 6.33203 153.073 6.20843C153.295 5.77142 153.997 5.68383 154.362 6.04774ZM165.044 5.90582C165.38 6.05877 165.438 6.25678 165.471 7.37548L165.502 8.42912H164.649H163.797V7.48268C163.797 6.00782 164.186 5.51548 165.044 5.90582ZM59.528 6.31326C59.8011 6.5859 59.8079 6.70429 59.7829 10.741L59.7599 14.4706L59.5738 14.6682C59.1539 15.1143 58.4557 14.8404 58.2442 14.1468C58.0717 13.5805 58.11 7.18667 58.2888 6.72398C58.524 6.11533 59.129 5.91487 59.528 6.31326ZM87.0425 6.34582C87.7113 7.01349 87.5895 14.4163 86.9038 14.7827C86.427 15.0375 85.9171 14.7885 85.813 14.2501C85.7238 13.7879 85.7255 7.09088 85.8151 6.70498C85.9533 6.10943 86.6126 5.91655 87.0425 6.34582ZM27.7508 7.68329C27.7303 7.7367 27.7227 8.65916 27.734 9.7331L27.7545 11.6858L29.6158 11.7064L31.477 11.7269V9.65655V7.58621H29.6326C28.2144 7.58621 27.7795 7.60866 27.7508 7.68329ZM41.1477 12.5192C41.1477 15.2336 40.8166 15.952 39.8705 15.2904C39.4769 15.0152 39.3691 12.1664 39.7336 11.672C39.8893 11.4608 40.9761 10.5841 41.0901 10.5779C41.1218 10.5762 41.1477 11.4497 41.1477 12.5192ZM27.7162 15.4406V17.4713H28.6423C29.5675 17.4713 29.5685 17.4715 29.5153 17.6437C29.3542 18.1651 28.9013 18.8309 28.2642 19.4828L27.7587 20H28.8888H30.0189L30.3259 19.6841C31.3094 18.6723 31.477 18.0605 31.477 15.4814V13.41H29.5966H27.7162V15.4406Z" fill="white"/>
</svg>
